<svg width="458" height="351" viewBox="0 0 458 351" fill="none" xmlns="http://www.w3.org/2000/svg">
<g clip-path="url(#clip0)">
<path fill-rule="evenodd" clip-rule="evenodd" d="M194.705 37.364V45.1H173.889V0.352997H194.705V8.023H181.506V18.827H192.04V26.497H181.506V37.363L194.705 37.364ZM216.051 45.1V37.364L205.454 37.363V0.352997H197.839V45.1H216.051ZM322.581 45.1V37.364H309.381V26.497H319.915V18.827H309.381V8.024H322.581V0.352997H301.766V45.1H322.581ZM297.34 0.353997H289.79L282.997 21.959L276.206 0.353997H268.654V45.101H276.271V23.111L279.253 34.489H286.678L289.725 23.111V45.101H297.34V0.353997ZM257.881 8.024H252.357V37.364H257.882L257.881 8.024ZM265.561 5.085C265.561 2.463 263.402 0.353997 260.863 0.353997L249.438 0.354997C246.839 0.354997 244.743 2.464 244.743 5.085V40.37C244.743 42.927 246.839 45.1 249.438 45.1H260.863C263.402 45.1 265.561 42.927 265.561 40.37V5.085ZM232.853 28.606L240.531 26.816V40.368C240.531 42.925 238.374 45.098 235.835 45.098H224.41C221.81 45.098 219.715 42.925 219.715 40.368V5.084C219.715 2.462 221.81 0.353997 224.41 0.353997H235.833C238.372 0.353997 240.53 2.462 240.53 5.084V14.161L232.852 15.951V8.023H227.329V37.363H232.852L232.853 28.606ZM170.123 0.353997H162.446L161.876 37.364H161.114L156.226 0.353997H148.674L143.914 37.364H143.09L142.455 0.353997H134.839L135.981 45.1H150.514L152.481 26.626L154.449 45.1H168.919L170.123 0.353997Z" fill="#81B3D3"/>
<path fill-rule="evenodd" clip-rule="evenodd" d="M181.483 77.101L178.638 81.978H175.909L175.039 83.412H177.796L171.727 93.795C170.45 96.003 171.351 98.041 173.789 98.041C175.012 98.041 176.327 97.404 177.642 96.42L176.864 97.754H179.91L184.498 89.867C189.142 84.1 191.204 84.847 189.897 87.057L185.977 93.797C184.699 96.007 185.6 98.045 188.038 98.045C189.834 98.045 191.826 96.675 193.731 94.84C193.877 96.697 195.398 98.045 197.821 98.045C201.244 98.045 204.641 95.405 207.137 92.537C206.94 92.134 206.418 91.676 206.011 91.504L205.808 91.73C203.63 94.227 200.844 96.205 198.726 96.205C196.866 96.205 195.762 95.059 197.156 92.65L197.446 92.13C199.392 92.935 203.05 92.561 205.314 88.69L205.751 87.943C207.376 85.19 205.809 83.125 203.341 83.125C200.902 83.125 198.958 84.388 197.681 86.566L194.751 91.531L194.575 91.731C192.398 94.225 190.28 96.203 188.944 96.203C188.278 96.203 187.898 95.743 188.594 94.568L192.949 87.025C194.255 84.76 193.009 83.125 191.325 83.125C190.018 83.125 188.623 83.842 187.115 85.39L191.933 77.101H188.914L180.491 91.539L180.321 91.729C178.145 94.225 176.024 96.203 174.688 96.203C174.021 96.203 173.644 95.743 174.342 94.568L180.814 83.41H183.281L184.153 81.977H181.657L184.502 77.102L181.483 77.101ZM149.174 81.98L152.019 77.105H155.038L152.192 81.978H154.691L153.819 83.414H151.354L144.878 94.572C144.181 95.747 144.559 96.207 145.226 96.207C146.561 96.207 148.683 94.228 150.859 91.732L151.015 91.556L152.252 89.466L153.732 86.913C155.474 83.929 157.272 83.013 159.594 83.013C162.44 83.013 164.123 85.966 162.295 89.093L159.45 93.939C160.961 93.91 162.644 93.195 164.008 91.732L164.213 91.504C164.619 91.676 165.141 92.133 165.341 92.537C163.801 94.343 160.957 95.433 159.157 95.433H158.491C155.222 99.517 149.875 98.774 149.881 94.972C148.015 96.741 146.078 98.045 144.324 98.045C141.886 98.045 140.985 96.007 142.263 93.798L148.331 83.415H145.574L146.444 81.98H149.174ZM159.972 87.978C161 86.236 160.534 85.031 159.55 84.941C158.785 84.871 157.707 85.477 156.78 87.033L155.329 89.47L153.035 93.398C151.235 96.495 154.692 96.954 156.114 94.544L156.144 94.488C155.969 94.2 155.853 93.855 155.853 93.484C155.853 92.509 156.636 91.705 157.623 91.705H157.768L159.972 87.978ZM203.284 87.947C204.296 86.203 203.764 85.286 202.795 85.343V85.344C202.043 85.388 201.026 86.022 200.263 87.314L198.317 90.671C199.45 91.073 201.397 91.131 202.847 88.693L203.284 87.947ZM247.113 79.88C245.399 81.4 245.255 83.094 246.33 84.47L246.592 84.814L246.53 84.9009C245.201 86.7568 243.427 89.2365 241.482 91.498L241.484 91.501L241.281 91.73C239.916 93.191 238.235 93.91 236.723 93.939L239.566 89.091C241.396 85.965 239.713 83.011 236.866 83.011C234.546 83.011 232.746 83.929 231.006 86.911L229.522 89.464L228.284 91.556L228.13 91.732C225.633 94.572 223.487 96.403 221.105 97.408L227.868 85.994H226.098C226.098 84.76 224.822 83.124 222.934 83.124C221.31 83.124 219.044 84.389 217.766 86.568L213.528 93.795C212.25 96.003 213.15 98.041 215.588 98.041C216.431 98.041 217.448 97.667 218.465 97.037L217.622 98.441C213.558 99.674 211.002 101.309 211.002 103.547C211.002 106.416 215.444 107.018 217.622 103.347L219.914 99.417C222.33 98.674 224.697 97.27 227.154 94.953C227.133 98.77 232.491 99.52 235.764 95.429H236.432C238.232 95.429 241.077 94.34 242.616 92.533C244.065 90.869 245.196 89.378 247.606 86.138L248.011 86.627C248.388 87.114 248.536 87.717 248.186 88.318L244.993 93.797C243.713 96.007 244.614 98.043 247.054 98.043C248.584 98.043 250.258 97.048 251.896 95.621C251.846 97.007 252.783 98.043 254.515 98.043C255.355 98.043 256.372 97.67 257.389 97.039L256.547 98.441C252.482 99.674 249.931 101.309 249.931 103.547C249.931 106.416 254.371 107.017 256.547 103.347L258.839 99.417C261.299 98.659 263.709 97.211 266.216 94.818C266.352 96.686 267.874 98.043 270.306 98.043C272.764 98.043 275.205 96.68 277.31 94.853C277.193 98.758 282.62 99.556 285.922 95.431H286.59C287.535 95.431 288.765 95.123 289.947 94.578C289.134 96.651 289.881 98.043 291.608 98.043C293.264 98.043 295.121 96.551 296.572 95.175C296.282 96.78 297.239 98.043 299.156 98.043C301.652 98.043 304.526 95.406 307.024 92.537L307.022 92.535C308.377 90.9906 309.605 89.3591 310.592 88.0493L310.592 88.0491C310.852 87.7035 311.096 87.3803 311.32 87.087C310.92 88.1272 310.726 89.446 310.536 90.7388C310.161 93.2937 309.8 95.747 307.894 95.747C306.878 95.747 306.474 94.657 306.474 94.657L304.584 95.632C304.584 95.632 305.135 98.044 307.894 98.044C308.162 98.044 308.406 98.0184 308.668 97.9909L308.734 97.984C308.749 97.984 308.764 97.9772 308.78 97.9705C308.795 97.9637 308.81 97.957 308.825 97.957C311.901 97.557 314.949 95.147 317.213 92.537C317.04 92.078 316.517 91.619 316.083 91.503L315.88 91.732C314.815 92.9643 313.595 94.0533 312.25 94.972C312.625 93.8582 312.822 92.5107 313.035 91.054C313.366 88.7962 313.734 86.2763 314.864 83.958L312.6 82.753C312.369 83.0659 312.088 83.4542 311.765 83.8992C310.342 85.8621 308.119 88.9291 305.894 91.501V91.503L305.691 91.732C303.515 94.228 301.396 96.204 300.06 96.204C299.393 96.204 299.015 95.745 299.713 94.57L306.157 83.412H303.137L297.767 92.677C295.474 94.741 293.705 95.889 293.123 95.63C292.423 95.3387 293.022 94.3543 293.414 93.7098C293.445 93.6596 293.474 93.6115 293.501 93.566L299.394 83.414H296.374L291.64 91.506L291.441 91.732C290.077 93.195 288.394 93.912 286.883 93.942L289.728 89.093C291.556 85.966 289.878 83.013 287.029 83.013C284.706 83.013 282.906 83.931 281.165 86.916L279.683 89.466L278.446 91.556L278.291 91.734C276.115 94.23 273.327 96.207 271.208 96.207C269.35 96.207 268.248 95.061 269.641 92.652L269.931 92.134C271.875 92.938 275.535 92.564 277.798 88.691L278.236 87.945C279.859 85.191 278.294 83.126 275.826 83.126C273.386 83.126 271.439 84.391 270.163 86.57L267.237 91.535L267.062 91.732C264.563 94.572 262.417 96.405 260.034 97.41L266.798 85.994H265.026C265.026 84.76 263.749 83.126 261.862 83.126C260.237 83.126 257.973 84.389 256.695 86.568L253.799 91.505L253.791 91.501L253.588 91.731C251.412 94.226 249.29 96.205 247.954 96.205C247.287 96.205 246.912 95.745 247.608 94.57L250.626 89.35C251.671 87.543 251.177 86.48 250.189 85.304L248.506 83.294C248.071 82.749 248.071 82.148 248.681 81.574L247.113 79.88ZM237.243 87.978C238.27 86.236 237.803 85.03 236.819 84.94V84.941C236.055 84.871 234.979 85.477 234.051 87.033L232.598 89.47L230.306 93.398C228.506 96.495 231.962 96.954 233.384 94.544L233.412 94.488C233.238 94.2 233.122 93.855 233.122 93.484C233.122 92.509 233.906 91.705 234.892 91.705H235.039L237.243 87.978ZM286.977 84.94C287.961 85.03 288.43 86.236 287.403 87.978L285.197 91.705H285.05C284.064 91.705 283.282 92.509 283.282 93.484C283.282 93.855 283.398 94.2 283.571 94.488L283.541 94.544C282.12 96.954 278.666 96.495 280.466 93.398L282.758 89.47L284.209 87.033C285.136 85.477 286.212 84.871 286.977 84.941V84.94ZM275.762 87.947C276.774 86.204 276.245 85.288 275.277 85.345V85.346C274.525 85.39 273.507 86.024 272.745 87.316L270.797 90.671C271.93 91.073 273.876 91.131 275.327 88.693L275.762 87.947ZM222.874 85.546C223.897 85.54 224.552 86.43 223.719 87.946L221.427 91.906C219.597 94.803 217.767 96.206 216.489 96.206C215.822 96.206 215.444 95.747 216.14 94.572L220.352 87.316C221.062 86.099 222.079 85.551 222.874 85.546ZM262.642 87.946C263.475 86.43 262.82 85.54 261.797 85.546C261.002 85.551 259.985 86.099 259.275 87.316L255.065 94.572C254.371 95.747 254.747 96.206 255.414 96.206C256.69 96.206 258.522 94.803 260.35 91.906L262.642 87.946ZM216.459 100.454L216.458 100.455C214.168 101.343 213.441 102.231 213.441 103.005C213.441 103.808 214.457 103.979 215.095 102.861L216.458 100.455L216.459 100.455V100.454ZM255.383 100.455L255.384 100.454V100.455L255.383 100.455ZM255.383 100.455L254.022 102.861C253.382 103.979 252.366 103.808 252.366 103.005C252.366 102.231 253.092 101.343 255.383 100.455ZM100.734 88.842H129.656V90.792H100.734V88.842ZM356.686 88.842H327.764V90.792H356.686V88.842Z" fill="#766458"/>
<path fill-rule="evenodd" clip-rule="evenodd" d="M9.67303 189.811C9.75003 189.889 9.78903 189.966 9.78903 190.044C9.86703 190.044 9.94403 190.082 10.021 190.16C12.111 192.482 14.473 194.65 17.105 196.663C19.737 198.598 22.757 199.643 26.163 199.798C26.241 199.798 26.318 199.838 26.395 199.915H26.744C26.821 199.915 26.899 199.953 26.976 200.031H28.253C28.641 199.953 28.989 199.876 29.299 199.798C30.54 199.565 31.7235 199.092 32.783 198.405C33.943 197.708 34.834 196.856 35.453 195.85L35.686 195.385L35.918 194.921C36.073 194.379 36.189 193.876 36.267 193.411C36.344 192.947 36.383 192.521 36.383 192.134C36.383 190.044 35.453 188.302 33.596 186.908C31.8645 185.465 29.9011 184.326 27.789 183.54C26.9947 183.247 26.1794 183.014 25.35 182.844C24.622 182.624 23.8862 182.43 23.144 182.263H22.912C22.834 182.186 22.757 182.147 22.68 182.147C18.9145 181.229 15.3115 179.741 11.996 177.734C8.66603 175.644 6.38303 172.663 5.14403 168.792C4.9014 167.982 4.66905 167.169 4.44703 166.353C4.28809 165.469 4.17195 164.578 4.09903 163.683C4.0277 163.417 3.98875 163.144 3.98303 162.869V160.082C4.06003 159.463 4.17603 158.844 4.33103 158.224C4.57144 156.642 4.96015 155.087 5.49203 153.579C6.03403 152.031 6.73103 150.637 7.58203 149.399C10.06 145.295 13.234 142.353 17.105 140.573C21.054 138.792 25.157 137.902 29.415 137.902C30.422 137.902 31.428 137.979 32.435 138.134C33.5225 138.211 34.6068 138.328 35.686 138.482C38.51 138.957 41.2744 139.736 43.931 140.805C46.718 141.889 49.273 143.166 51.596 144.637L45.209 158.921C43.1246 157.376 40.9096 156.017 38.589 154.857C36.267 153.695 33.751 153.115 31.041 153.115H30.111C28.331 153.347 26.667 154.16 25.118 155.553C23.57 156.869 22.796 158.302 22.796 159.85V160.547C22.873 160.779 22.989 161.011 23.144 161.244C23.299 161.786 23.57 162.289 23.957 162.754C24.344 163.218 24.77 163.644 25.234 164.031C26.086 164.728 27.324 165.386 28.951 166.005C30.576 166.547 32.28 167.089 34.061 167.631C35.531 168.018 36.963 168.405 38.357 168.792C39.751 169.102 40.912 169.412 41.841 169.722C46.176 171.27 49.428 173.863 51.596 177.502C53.763 181.063 54.886 184.857 54.963 188.882V189.463C54.963 189.928 54.925 190.393 54.847 190.857V192.134C54.383 196.16 53.067 199.992 50.899 203.631C48.809 207.27 45.983 210.057 42.422 211.993C41.1002 212.614 39.7429 213.157 38.357 213.618C36.973 214.003 35.5792 214.352 34.177 214.664C33.0271 214.894 31.8633 215.049 30.693 215.128C29.5767 215.279 28.4516 215.357 27.325 215.36H26.047C21.402 215.206 16.835 214.199 12.344 212.34C7.85403 210.405 3.86703 207.85 0.384033 204.676L9.67303 189.811ZM225.567 143.565C219.219 147.049 214.264 152.082 210.703 158.662L210.702 158.661C209.679 160.556 208.824 162.538 208.147 164.583C207.462 166.554 206.919 168.573 206.522 170.622C206.289 171.707 206.134 172.751 206.057 173.757C205.98 174.764 205.941 175.771 205.941 176.777C205.941 183.59 207.799 190.171 211.515 196.519C215.231 202.79 220.341 207.629 226.844 211.035C229.212 212.261 231.704 213.234 234.276 213.938C236.864 214.627 239.506 215.093 242.173 215.332H243.683C244.222 215.409 244.765 215.448 245.309 215.448C252.895 215.448 260.135 213.396 267.025 209.293C273.915 205.113 278.986 199.268 282.237 191.758C282.845 190.245 283.349 188.694 283.747 187.113C284.205 185.519 284.516 183.886 284.676 182.236C284.831 181.461 284.909 180.687 284.909 179.913C284.986 179.061 285.025 178.248 285.025 177.474C285.025 171.05 283.515 164.894 280.496 159.01C277.477 153.049 273.219 148.288 267.722 144.726C265.173 143.103 262.445 141.778 259.593 140.778C256.849 139.782 254.007 139.082 251.115 138.688C250.186 138.61 249.219 138.533 248.212 138.455C247.283 138.378 246.354 138.339 245.425 138.339C238.535 138.339 231.915 140.081 225.567 143.565ZM298.712 213.646V139.672H318.222L346.093 177.646C346.813 178.771 347.472 179.934 348.067 181.13C348.771 182.304 349.429 183.505 350.041 184.73L351.435 187.75C351.899 188.756 352.364 189.723 352.828 190.652C352.755 189.834 352.639 189.02 352.48 188.214C352.403 187.44 352.325 186.627 352.248 185.775C352.09 184.191 351.974 182.604 351.899 181.014C351.819 179.35 351.78 177.685 351.783 176.02V139.672H371.176V213.646H351.783L323.68 175.44C322.906 174.511 322.17 173.427 321.474 172.189C320.77 170.857 320.111 169.501 319.5 168.124C319.05 167.149 318.586 166.181 318.106 165.221C317.747 164.281 317.359 163.351 316.945 162.434C317.332 164.834 317.642 167.273 317.874 169.75C318.106 172.227 318.216 174.705 318.222 177.182V213.646H298.712ZM406.172 139.672L380.74 213.646H400.714L404.546 200.291H433.114L436.83 213.646H457.036L431.372 139.672H406.172ZM408.844 186.007L416.392 161.504C416.699 160.429 416.971 159.345 417.205 158.252C417.521 157.141 417.792 156.018 418.017 154.885C418.094 154.73 418.134 154.614 418.134 154.536C418.134 154.382 418.172 154.227 418.25 154.072C418.327 153.607 418.405 153.181 418.482 152.794C418.637 152.33 418.753 151.904 418.83 151.517C418.908 151.904 418.985 152.33 419.063 152.794C419.14 153.182 419.256 153.607 419.411 154.072C419.653 155.355 419.924 156.633 420.224 157.904C420.6 159.107 420.987 160.307 421.385 161.504L428.934 186.007H408.844ZM263.542 185.255C263.774 184.481 263.968 183.668 264.122 182.816C264.355 181.965 264.51 181.113 264.587 180.261C264.665 179.72 264.703 179.178 264.703 178.636C264.781 178.094 264.819 177.59 264.819 177.126C264.819 176.659 264.78 176.192 264.703 175.732V174.339C264.316 171.009 263.31 167.797 261.683 164.7C260.058 161.603 257.813 159.203 254.948 157.5C254.174 157.113 253.4 156.765 252.626 156.455C251.852 156.145 251.077 155.875 250.303 155.642C249.535 155.488 248.76 155.372 247.981 155.294C247.216 155.14 246.438 155.062 245.658 155.061C241.71 155.061 238.071 156.301 234.742 158.778C231.413 161.255 229.09 164.545 227.774 168.648L227.542 169.113V169.577C227.303 170.3 227.109 171.037 226.962 171.784C226.807 172.481 226.652 173.216 226.497 173.99L226.265 175.616V178.055C226.265 178.287 226.303 178.558 226.381 178.868C226.613 182.971 227.851 186.881 230.097 190.597C232.419 194.235 235.594 196.635 239.619 197.797L241.013 198.261C241.477 198.339 241.981 198.416 242.523 198.493L243.916 198.726H245.31C249.413 198.726 253.09 197.526 256.342 195.126C259.671 192.648 262.071 189.358 263.542 185.255ZM169.541 211.788C173.799 210.858 177.747 209.155 181.386 206.678H181.387C185.877 203.426 189.322 199.246 191.722 194.136C194.122 189.026 195.438 183.723 195.671 178.226V175.323C195.671 174.858 195.632 174.394 195.554 173.93C195.245 168.664 193.89 163.555 191.49 158.6C189.09 153.646 185.722 149.659 181.387 146.64C178.023 144.181 174.189 142.442 170.123 141.53C166.097 140.601 161.993 140.02 157.813 139.788C156.652 139.71 155.452 139.672 154.213 139.672H129.129V213.646H152.935C154.175 213.646 155.414 213.607 156.651 213.53C160.986 213.298 165.283 212.718 169.541 211.788ZM148.986 197.039C149.218 197.039 149.451 197.078 149.683 197.155H150.496C150.806 197.155 151.076 197.195 151.309 197.272H154.444C155.296 197.194 156.109 197.117 156.883 197.039C158.887 196.886 160.87 196.536 162.805 195.994C164.741 195.452 166.483 194.639 168.031 193.555C170.509 191.775 172.328 189.375 173.489 186.355C174.721 183.291 175.352 180.019 175.347 176.717V175.787C175.347 175.478 175.309 175.168 175.231 174.859C175.079 171.926 174.369 169.049 173.141 166.381C171.902 163.594 170.199 161.388 168.031 159.761C166.441 158.463 164.574 157.549 162.573 157.091C160.592 156.62 158.569 156.348 156.534 156.278H148.986V197.039ZM69.076 139.671V213.645H114.482V197.039H88.934V184.497H112.973V168.703H88.934V155.813H114.482V139.671H69.076ZM351.423 336.054C351.31 336.345 351.253 336.637 351.253 336.931C351.253 337.649 351.5 338.2 351.993 338.58C352.488 338.964 353.063 339.154 353.713 339.154C353.689 339.535 353.589 339.872 353.409 340.164C353.23 340.455 353.001 340.712 352.733 340.924C352.466 341.137 352.179 341.317 351.876 341.463C351.572 341.608 351.298 341.725 351.048 341.815L352.398 343.805C352.431 343.789 352.464 343.773 352.496 343.757L352.526 343.744L352.582 343.718C352.644 343.689 352.706 343.662 352.768 343.635C352.974 343.547 353.214 343.427 353.494 343.283C353.802 343.12 354.1 342.939 354.387 342.743C354.689 342.54 354.972 342.308 355.23 342.052C355.783 341.502 356.223 340.85 356.526 340.132C356.83 339.413 356.981 338.624 356.981 337.774C356.981 337.323 356.915 336.897 356.779 336.493C356.644 336.089 356.454 335.741 356.207 335.449C355.916 335.132 355.56 334.892 355.146 334.722C354.73 334.554 354.298 334.47 353.848 334.47C353.443 334.47 353.078 334.544 352.753 334.69C352.443 334.825 352.162 335.019 351.926 335.262C351.703 335.498 351.535 335.761 351.423 336.054ZM359.09 336.931C359.09 336.638 359.147 336.345 359.257 336.054C359.37 335.761 359.539 335.498 359.763 335.262C359.99 335.027 360.263 334.834 360.588 334.69C360.915 334.545 361.278 334.47 361.684 334.47C362.134 334.47 362.567 334.554 362.981 334.722C363.398 334.892 363.751 335.132 364.042 335.449C364.292 335.741 364.482 336.089 364.616 336.493C364.75 336.898 364.818 337.324 364.818 337.774C364.827 338.582 364.672 339.384 364.363 340.132C364.059 340.85 363.618 341.502 363.065 342.052C362.806 342.309 362.523 342.54 362.22 342.743C361.934 342.942 361.636 343.122 361.327 343.283C361.047 343.428 360.807 343.547 360.602 343.635C360.478 343.689 360.354 343.746 360.232 343.805L358.884 341.815C359.131 341.726 359.404 341.608 359.709 341.463C360.013 341.317 360.299 341.137 360.569 340.924C360.837 340.71 361.063 340.457 361.242 340.164C361.423 339.872 361.524 339.536 361.546 339.154C360.924 339.165 360.318 338.962 359.827 338.58C359.337 338.2 359.09 337.649 359.09 336.932V336.931ZM94.36 279.09C94.473 278.799 94.53 278.506 94.53 278.215H94.531C94.531 277.496 94.283 276.947 93.791 276.566C93.297 276.184 92.723 275.994 92.073 275.994C92.096 275.611 92.196 275.273 92.376 274.981C92.556 274.689 92.779 274.436 93.049 274.223C93.319 274.009 93.606 273.83 93.909 273.684C94.1784 273.554 94.4537 273.436 94.734 273.332L93.386 271.344C93.342 271.366 93.219 271.424 93.016 271.511C92.813 271.6 92.571 271.719 92.291 271.863C91.9829 272.025 91.6847 272.205 91.398 272.403C91.0946 272.604 90.8119 272.835 90.554 273.093C90.001 273.642 89.5604 274.295 89.257 275.013C88.954 275.733 88.802 276.521 88.802 277.373C88.7999 277.808 88.8681 278.24 89.004 278.653C89.1262 279.035 89.3207 279.389 89.577 279.698C89.8723 280.015 90.2343 280.263 90.637 280.423C91.0489 280.59 91.4894 280.676 91.934 280.675C92.6564 280.685 93.3513 280.399 93.857 279.883C94.0757 279.654 94.2467 279.385 94.36 279.09ZM86.694 278.215C86.6892 278.837 86.4487 279.433 86.021 279.885C85.7854 280.127 85.5048 280.321 85.195 280.456C84.869 280.602 84.503 280.676 84.099 280.676C83.6541 280.677 83.2131 280.592 82.801 280.424C82.3984 280.263 82.0364 280.015 81.741 279.698C81.484 279.39 81.2894 279.035 81.168 278.653C81.0316 278.24 80.9634 277.808 80.966 277.373C80.966 276.521 81.116 275.733 81.421 275.013C81.7241 274.294 82.1647 273.642 82.718 273.093C82.965 272.845 83.245 272.616 83.561 272.402C83.875 272.19 84.173 272.009 84.454 271.862C84.734 271.718 84.974 271.6 85.178 271.512L85.2347 271.486C85.4036 271.41 85.5094 271.363 85.55 271.342L86.897 273.33C86.649 273.42 86.375 273.538 86.071 273.683C85.768 273.83 85.481 274.009 85.214 274.221C84.9465 274.433 84.7178 274.69 84.538 274.98C84.359 275.272 84.258 275.61 84.236 275.992C84.886 275.992 85.46 276.182 85.954 276.565C86.447 276.947 86.694 277.495 86.694 278.215ZM335.859 335.089H332.044L343.925 314.453H347.701L335.859 335.089ZM331.863 336.577C330.627 336.577 329.682 337.557 329.682 338.795C329.682 340.033 330.628 340.975 331.863 340.975C333.095 340.975 334.08 340.031 334.08 338.795C334.08 337.559 333.095 336.577 331.863 336.577ZM306.601 329.162L305.511 331.05C306.346 333.521 309.65 332.141 310.78 330.179L312.595 327.055C313.94 324.765 310.961 323.094 306.601 329.162ZM330.603 334.03C330.385 333.45 329.731 332.867 329.186 332.723L328.931 333.015C327.602 334.574 326.075 335.954 324.389 337.119C324.859 335.708 325.106 334 325.372 332.153C325.784 329.295 326.244 326.104 327.657 323.169L324.822 321.642C324.544 322.024 324.207 322.495 323.821 323.034L323.82 323.035L323.82 323.035C322.043 325.518 319.236 329.439 316.43 332.723C316.436 332.733 316.446 332.741 316.451 332.748C316.445 332.745 316.438 332.741 316.431 332.736C316.423 332.731 316.414 332.726 316.406 332.723L316.153 333.015C313.426 336.175 310.776 338.681 309.103 338.681C308.269 338.681 307.469 337.845 307.469 336.138V334.576C310.121 334.903 312.919 333.158 314.699 330.072L315.715 328.329C319.237 322.299 313.498 320.299 309.647 323.825L315.022 314.488H311.243L300.468 333.183C300.261 332.999 300.029 332.845 299.779 332.726L299.523 333.018C296.8 336.178 293.312 338.684 290.66 338.684C288.335 338.684 286.955 337.231 288.699 334.18L292.583 327.423C294.763 323.681 298.615 324.299 296.361 328.223L295.817 329.167H298.907L299.452 328.223C301.486 324.735 299.523 322.119 296.437 322.119C293.386 322.119 290.95 323.719 289.352 326.479L285.634 332.859C285.614 332.847 285.594 332.835 285.575 332.823C285.515 332.787 285.456 332.751 285.401 332.727L285.146 333.019C282.422 336.179 279.771 338.685 278.099 338.685C277.263 338.685 276.793 338.105 277.663 336.615L285.729 322.482H281.949L275.23 334.216C272.357 336.831 270.145 338.284 269.416 337.958C268.54 337.588 269.289 336.342 269.78 335.525C269.818 335.462 269.855 335.401 269.889 335.343L277.263 322.482H273.485L266.147 335.177C265.641 335.638 264.838 336.068 264.114 336.457C263.67 336.695 263.256 336.917 262.957 337.121C263.428 335.709 263.674 334.001 263.941 332.154V332.154L263.941 332.153C264.353 329.295 264.814 326.106 266.226 323.171L263.394 321.644C261.831 323.787 253.111 335.342 249.696 339.337C250.021 339.809 250.568 340.282 251.112 340.645C253.255 338.175 260.45 328.911 261.794 327.131C261.293 328.449 261.051 330.121 260.814 331.759C260.345 334.995 259.895 338.103 257.506 338.103C256.236 338.103 255.726 336.721 255.726 336.721L253.365 337.957C253.365 337.957 254.055 341.007 257.505 341.007C257.839 341.007 258.141 340.977 258.469 340.944L258.469 340.944L258.561 340.935C258.568 340.935 258.574 340.933 258.581 340.931C258.587 340.929 258.593 340.927 258.599 340.924C258.604 340.922 258.609 340.919 258.614 340.917L258.614 340.917C258.625 340.911 258.635 340.906 258.646 340.902L258.651 340.901L258.654 340.9C258.659 340.899 258.663 340.899 258.667 340.899C260.587 340.645 263.245 339.761 265.027 338.529C265.015 340.066 265.943 341.007 267.527 341.007C269.595 341.007 271.922 339.118 273.737 337.375C273.376 339.41 274.572 341.007 276.972 341.007C279.318 341.007 281.931 339.121 284.409 336.644C284.443 339.154 286.377 341.007 289.535 341.007C292.601 341.007 295.649 339.294 298.276 336.991L296.171 340.645H299.987L304.31 333.125V336.139C304.31 339.371 304.927 341.007 307.98 341.007C311.103 341.007 314.701 337.666 317.825 334.032C317.823 334.029 317.821 334.025 317.818 334.022C317.812 334.015 317.806 334.007 317.805 333.998C317.819 334.01 317.836 334.021 317.852 334.032C319.565 332.058 321.117 329.967 322.355 328.298C322.666 327.878 322.958 327.485 323.227 327.128C322.727 328.446 322.486 330.116 322.249 331.753C321.78 334.991 321.33 338.101 318.94 338.101C317.67 338.101 317.16 336.719 317.16 336.719L314.798 337.955C314.798 337.955 315.489 341.005 318.94 341.005C319.268 341.005 319.566 340.975 319.892 340.943L319.996 340.933C320.012 340.933 320.027 340.926 320.043 340.918C320.062 340.908 320.081 340.898 320.101 340.898C323.954 340.386 327.769 337.336 330.602 334.028L330.603 334.03ZM215.829 332.944H216.012L218.772 328.222C221.06 324.297 217.428 322.517 214.775 327.022L212.959 330.11L210.089 335.087C207.836 339.011 212.16 339.591 213.939 336.541L213.976 336.468C213.758 336.106 213.613 335.671 213.613 335.199C213.613 333.961 214.594 332.944 215.829 332.944ZM190.582 347.075C189.782 348.492 188.51 348.275 188.51 347.259C188.51 346.279 189.419 345.153 192.325 344.025L190.582 347.075ZM155.737 338.648C157.299 338.648 159.552 336.94 161.84 333.345L164.781 328.185C166.635 324.769 162.603 323.862 160.568 327.384L155.301 336.577C154.43 338.068 154.902 338.648 155.737 338.648ZM149.786 318.595C150.912 316.668 152.148 315.833 153.201 315.833C154.619 315.833 155.272 316.777 155.272 318.158C155.272 321.682 150.908 328.991 145.1 328.039H144.337L149.786 318.595ZM242.309 332.981L242.563 332.689L242.564 332.69C243.074 332.908 243.727 333.49 243.982 334.001C240.856 337.634 237.262 340.976 234.136 340.976C231.083 340.976 229.958 338.399 231.556 335.6L236.46 327.062C238.096 324.264 235.516 323.321 229.739 330.551L223.963 340.614H220.148L222.688 336.22C221.002 337.15 219.134 337.67 217.754 337.67H216.919C212.681 343.028 205.653 341.825 206.173 336.548C202.921 339.767 199.807 341.726 196.648 342.72L193.742 347.698C191.02 352.348 185.46 351.584 185.46 347.951C185.46 345.119 188.657 343.01 193.78 341.486L195.851 337.926C194.142 339.45 192.073 340.976 190.256 340.976C188.374 340.976 187.415 339.644 187.868 337.566C185.694 339.556 183.461 340.976 181.428 340.976C178.377 340.976 177.251 338.4 178.849 335.6L183.753 327.066C185.388 324.267 182.808 323.324 177.031 330.554L171.255 340.617H167.441L168.833 338.206C166.891 339.855 164.923 340.979 163.113 340.979C161.189 340.979 160.025 339.964 159.845 338.51C158.028 339.999 156.139 340.979 154.613 340.979C151.938 340.979 150.742 338.998 151.565 336.624L151.341 336.837L151.341 336.837C148.851 339.206 146.988 340.979 142.884 340.979C137.544 340.979 135.983 335.895 138.634 331.317L139.759 329.353C136.709 327.755 135.001 324.848 135.001 321.835C135.001 319.289 136.198 316.713 138.888 314.785L140.123 317.003C138.489 318.273 137.689 320.017 137.689 321.76C137.689 323.868 138.853 325.975 141.069 327.138L146.955 317.001C148.661 314.023 151.132 312.569 153.203 312.569C155.999 312.569 158.216 314.784 158.216 318.199C158.216 319.689 157.743 321.432 156.69 323.285C153.711 328.48 149.133 330.552 145.1 330.552C144.339 330.552 143.648 330.475 142.958 330.368L141.903 332.22C139.653 336.072 141.214 338.651 143.793 338.651C147.468 338.651 149.552 336.234 152.206 333.154L152.353 332.984L152.607 332.692C152.878 332.765 153.175 332.947 153.435 333.18L157.338 326.444C158.934 323.681 161.77 322.084 163.803 322.084C166.274 322.084 167.909 324.3 167.764 325.898H169.907L163.803 336.578C162.932 338.07 163.404 338.65 164.239 338.65C165.912 338.65 168.564 336.143 171.287 332.983L171.541 332.691C171.666 332.749 171.786 332.816 171.9 332.893L177.938 322.448H181.718L180.301 324.917C182.189 322.955 183.897 322.083 185.532 322.083C187.639 322.083 189.201 324.155 187.566 327.025L182.117 336.578C181.246 338.07 181.718 338.65 182.553 338.65C184.225 338.65 186.876 336.143 189.601 332.983L189.855 332.691C189.97 332.745 190.081 332.807 190.186 332.878L196.214 322.448H199.992L192.617 335.308L192.57 335.388L192.506 335.494C192.016 336.311 191.271 337.555 192.145 337.924C192.871 338.25 195.124 336.761 198.031 334.074L204.714 322.448H208.493L198.138 340.178C201.116 338.903 203.768 336.578 206.893 332.983L207.147 332.692C207.266 332.746 207.38 332.81 207.489 332.882L209.109 330.112L210.961 326.879C213.142 323.101 215.393 321.939 218.3 321.939C221.862 321.939 223.968 325.678 221.68 329.64L218.12 335.78C220.009 335.743 222.117 334.833 223.823 332.981L224.078 332.689C224.248 332.769 224.41 332.866 224.56 332.979L230.648 322.446H234.427L233.01 324.915C234.9 322.953 236.605 322.082 238.241 322.082C240.346 322.082 241.912 324.153 240.276 327.023L234.826 336.576C233.955 338.068 234.426 338.648 235.262 338.648C236.934 338.648 239.587 336.141 242.309 332.981ZM361.194 297.117C358.904 300.858 356.579 302.638 354.982 302.638C354.147 302.638 353.675 302.058 354.545 300.568L359.812 291.375C361.847 287.851 365.879 288.76 364.026 292.175H364.061L361.194 297.117ZM318.903 302.638C320.464 302.638 322.717 300.93 325.007 297.336L327.948 292.175C329.8 288.76 325.768 287.851 323.734 291.375L318.466 300.568C317.596 302.058 318.067 302.638 318.903 302.638ZM285.09 311.066C284.293 312.483 283.02 312.266 283.02 311.25C283.02 310.269 283.892 309.143 286.799 308.016L285.09 311.066ZM296.535 279.825C295.48 279.825 294.245 280.659 293.118 282.585L287.67 292.03H288.433C298.06 294.26 302.529 279.825 296.535 279.825ZM370.782 296.682L370.527 296.972C367.807 300.132 365.153 302.639 363.48 302.639C362.645 302.639 362.173 302.059 363.043 300.568L375.832 278.444H372.053L366.496 288.035C365.842 286.981 364.606 286.073 363.043 286.073C361.008 286.073 358.176 287.672 356.577 290.432L352.879 296.812C352.866 296.804 352.853 296.797 352.84 296.789L352.815 296.774C352.757 296.739 352.699 296.704 352.645 296.68L352.39 296.972C349.667 300.132 347.39 302.638 345.718 302.638C344.881 302.638 344.411 302.058 345.28 300.568L350.73 291.013C352.367 288.143 350.802 286.071 348.696 286.071C347.06 286.071 345.356 286.942 343.464 288.906L344.881 286.436H341.102L335.065 296.883C334.95 296.806 334.83 296.738 334.705 296.68L334.449 296.972C331.726 300.132 329.075 302.638 327.403 302.638C326.568 302.638 326.097 302.058 326.967 300.568L333.07 289.886H330.926C331.072 288.288 329.438 286.071 326.966 286.071C324.931 286.071 322.096 287.67 320.498 290.429L316.846 296.735L316.64 296.969C313.918 300.128 310.89 302.634 309.22 302.634C308.383 302.634 307.913 302.054 308.783 300.564L312.561 293.953C313.868 291.663 313.25 290.32 312.016 288.83L309.91 286.286C309.365 285.596 309.365 284.833 310.128 284.106L308.166 281.963C306.022 283.89 305.841 286.032 307.184 287.776L307.513 288.212L307.379 288.401L307.379 288.402C305.721 290.743 303.523 293.849 301.116 296.677C301.157 296.735 301.202 296.794 301.25 296.852C301.29 296.9 301.331 296.948 301.374 296.997C298.261 300.577 295.615 302.892 292.644 304.159L297.439 295.949H293.661L293.262 296.604C291.264 300.128 288.974 302.635 286.032 302.635C283.452 302.635 282.982 300.056 285.232 296.205L286.287 294.353C286.995 294.47 287.711 294.53 288.429 294.534C301.872 294.534 308.375 276.552 296.533 276.552C294.461 276.552 291.989 278.006 290.283 280.984L284.398 291.119C282.182 289.958 281.02 287.851 281.02 285.744C281.02 284.001 281.82 282.256 283.452 280.986L282.219 278.769C279.529 280.695 278.331 283.273 278.331 285.816C278.331 288.832 280.04 291.738 283.091 293.336L281.964 295.299C279.312 299.877 279.784 304.962 285.126 304.962C286.724 304.962 288.067 304.49 289.231 303.762L288.248 305.472C283.128 307.032 279.966 309.103 279.966 311.937C279.966 315.569 285.526 316.333 288.248 311.683L291.155 306.706C295.08 305.471 298.931 302.783 303.073 297.987C303.006 297.861 302.927 297.742 302.837 297.632C304.515 295.661 305.939 293.758 308.787 289.886L309.294 290.505C309.767 291.121 309.948 291.885 309.512 292.649L305.515 299.586C303.916 302.381 305.043 304.96 308.095 304.96C309.994 304.96 312.443 303.721 314.48 301.936C314.436 303.674 315.624 304.96 317.779 304.96C319.304 304.96 321.194 303.98 323.009 302.49C323.192 303.944 324.356 304.96 326.279 304.96C328.089 304.96 330.056 303.835 331.999 302.186L330.607 304.598H334.42L340.197 294.533C345.974 287.304 348.554 288.249 346.917 291.046L342.014 299.584C340.417 302.382 341.541 304.96 344.592 304.96C346.602 304.96 348.428 303.576 350.574 301.627C350.374 303.52 351.578 304.96 353.856 304.96C355.381 304.96 357.27 303.98 359.088 302.49C359.27 303.945 360.433 304.96 362.357 304.96C365.482 304.96 369.077 301.619 372.202 297.984C371.946 297.48 371.293 296.899 370.782 296.682ZM262.281 292.176C264.535 288.252 260.682 287.635 258.502 291.377L256.068 295.627C257.484 296.135 259.919 296.209 261.736 293.12L262.281 292.176ZM255.451 304.964C259.738 304.964 263.991 301.623 267.113 297.989C266.86 297.479 266.205 296.899 265.696 296.681L265.443 296.973C262.717 300.133 259.23 302.639 256.576 302.639C254.251 302.639 252.871 301.186 254.614 298.134L254.977 297.481C257.412 298.497 261.989 298.026 264.823 293.121L265.368 292.177C267.403 288.688 265.441 286.073 262.352 286.073C259.302 286.073 256.868 287.671 255.269 290.432L251.59 296.745C251.552 296.725 251.514 296.697 251.478 296.681L251.223 296.973C248.499 300.133 245.848 302.639 244.176 302.639C243.34 302.639 242.87 302.059 243.739 300.568L249.189 291.013C250.824 288.143 249.261 286.071 247.153 286.071C245.518 286.071 243.774 286.98 241.887 288.942L247.917 278.442H244.139L233.483 296.932C233.348 296.833 233.203 296.749 233.051 296.68L232.796 296.971C230.071 300.132 227.42 302.638 225.748 302.638C224.913 302.638 224.441 302.058 225.311 300.568L233.413 286.434H236.503L237.593 284.617H234.468L238.028 278.442H234.25L230.69 284.617H227.275L226.185 286.434H229.635L222.042 299.587C220.444 302.386 221.57 304.964 224.621 304.964C226.499 304.964 228.547 303.751 230.561 302L229.062 304.6H232.877L238.617 294.608C244.43 287.306 247.01 288.251 245.375 291.048L240.47 299.586C238.872 302.384 239.998 304.962 243.05 304.962C245.346 304.962 247.896 303.157 250.326 300.757C250.436 303.188 252.359 304.964 255.451 304.964ZM131.756 292.175C134.01 288.251 130.16 287.634 127.98 291.376L125.545 295.625C126.961 296.134 129.397 296.207 131.212 293.119L131.756 292.175ZM151.099 300.567L156.367 291.376C158.401 287.85 162.434 288.759 160.58 292.175L157.638 297.334C155.35 300.929 153.095 302.638 151.534 302.638C150.7 302.638 150.227 302.057 151.099 300.568V300.567ZM208.859 292.175C211.113 288.251 207.263 287.634 205.083 291.376L202.648 295.625C204.064 296.133 206.499 296.207 208.314 293.119L208.859 292.175ZM147.275 300.902C146.648 303.142 147.845 304.962 150.409 304.962C151.934 304.962 153.824 303.982 155.639 302.493C155.822 303.946 156.985 304.963 158.909 304.963C160.922 304.963 163.127 303.573 165.278 301.617C164.86 303.659 165.817 304.963 167.678 304.963C169.751 304.963 172.076 303.073 173.891 301.329C173.527 303.365 174.728 304.963 177.125 304.963C180.25 304.963 183.845 301.621 186.97 297.987C186.955 297.958 186.935 297.928 186.914 297.899C186.899 297.878 186.883 297.857 186.87 297.836C188.51 295.928 189.998 293.928 191.2 292.314L191.2 292.313L191.2 292.313L191.201 292.312L191.201 292.312C191.529 291.871 191.836 291.459 192.118 291.086C191.617 292.404 191.375 294.075 191.138 295.713V295.714C190.669 298.95 190.219 302.058 187.83 302.058C186.56 302.058 186.05 300.676 186.05 300.676L183.687 301.911C183.687 301.911 184.377 304.963 187.829 304.963C188.153 304.963 188.447 304.933 188.766 304.901L188.883 304.89C188.902 304.89 188.92 304.881 188.938 304.872C188.956 304.863 188.973 304.855 188.991 304.855C191.767 304.488 194.52 302.799 196.904 300.646C196.962 303.132 198.89 304.963 202.029 304.963C206.316 304.963 210.567 301.622 213.691 297.987C213.437 297.477 212.783 296.897 212.275 296.679L212.021 296.971C209.296 300.131 205.808 302.638 203.158 302.638C200.832 302.638 199.451 301.184 201.195 298.133L201.559 297.479C203.991 298.495 208.569 298.024 211.404 293.119L211.949 292.176C213.983 288.687 212.021 286.072 208.934 286.072C205.884 286.072 203.447 287.67 201.851 290.43L198.181 296.724C198.165 296.718 198.149 296.71 198.133 296.702C198.114 296.692 198.096 296.683 198.077 296.678L197.823 296.969C196.494 298.529 194.967 299.909 193.281 301.075C193.752 299.663 193.998 297.955 194.265 296.108V296.108L194.265 296.107C194.678 293.25 195.139 290.06 196.551 287.124L193.718 285.598C193.434 285.987 193.089 286.47 192.693 287.022L192.693 287.022C190.914 289.507 188.12 293.409 185.325 296.678C185.336 296.693 185.348 296.708 185.36 296.723C185.368 296.733 185.376 296.743 185.384 296.752L185.386 296.755L185.387 296.756C185.403 296.776 185.42 296.796 185.435 296.816L185.3 296.969C182.576 300.129 179.924 302.636 178.252 302.636C177.417 302.636 176.945 302.056 177.816 300.566L185.881 286.431H182.102L175.382 298.165C172.512 300.781 170.297 302.234 169.568 301.907C168.692 301.537 169.443 300.289 169.934 299.472L169.935 299.47L169.944 299.455C169.965 299.421 169.984 299.389 170.003 299.357C170.016 299.335 170.029 299.313 170.042 299.292L177.415 286.432H173.637L167.624 296.837L167.59 296.816C167.504 296.763 167.418 296.71 167.337 296.676L167.083 296.966C164.358 300.126 161.707 302.633 160.035 302.633C159.2 302.633 158.728 302.053 159.599 300.563L165.702 289.881H163.558C163.704 288.283 162.07 286.065 159.598 286.065C157.564 286.065 154.73 287.665 153.132 290.425L149.302 297.037C149.126 296.893 148.932 296.771 148.726 296.674L148.472 296.964C145.748 300.124 142.614 302.631 139.962 302.631C137.638 302.631 136.256 301.178 137.999 298.127L141.886 291.371C144.066 287.629 147.917 288.246 145.663 292.169L145.118 293.114H148.208L148.752 292.169C150.786 288.682 148.825 286.065 145.738 286.065C142.686 286.065 140.604 287.665 139.008 290.425L135.252 296.868C135.142 296.794 135.026 296.729 134.905 296.674L134.651 296.964C131.927 300.124 128.704 302.631 126.053 302.631C123.727 302.631 122.346 301.178 124.09 298.127L124.453 297.473C126.887 298.491 131.465 298.018 134.299 293.115L134.844 292.169C136.878 288.683 134.916 286.066 131.828 286.066C128.778 286.066 126.342 287.664 124.745 290.426L120.785 297.218C118.422 301.251 120.458 304.956 124.925 304.956C128.254 304.956 130.938 302.941 133.713 300.339C133.615 302.976 135.571 304.956 138.834 304.956C141.922 304.962 144.634 303.228 147.275 300.902ZM113.454 281.711L110.403 286.942V286.943C114.254 286.87 116.399 286.034 117.849 283.31C119.739 279.749 116.214 276.954 113.454 281.711ZM106.335 304.162C104.082 304.162 102.302 303.654 100.885 302.856C101.539 302.092 102.192 301.147 102.775 300.167L109.131 289.159L110.148 289.267C119.014 291.122 115.489 304.162 106.335 304.162ZM115.672 288.686C123.3 286.106 123.881 276.552 116.361 276.552C114.29 276.552 111.82 278.005 110.113 280.984L99.94 298.568C99.5203 299.323 99.0343 300.039 98.488 300.709C95.872 297.114 96.635 291.738 100.304 289.375L98.777 287.449C90.857 292.499 93.183 307.066 106.407 307.066C117.707 307.068 122.937 293.52 115.672 288.686Z" fill="white"/>
</g>
<defs>
<clipPath id="clip0">
<rect x="0.384033" y="0.352997" width="456.652" height="350.58" fill="white"/>
</clipPath>
</defs>
</svg>
